<!-- Generated by IcoMoon.io -->
<svg version="1.1" xmlns="http://www.w3.org/2000/svg" width="43" height="32" viewBox="0 0 43 32">
<title>envelope</title>
<path fill="#757575" d="M38.667 0h-34.667c-2.205 0-4 1.675-4 3.733v22.405c0 2.059 1.795 3.733 4 3.733h34.667c2.205 0 4-1.675 4-3.733v-22.405c0-2.059-1.795-3.733-4-3.733zM38.667 2.488c0.181 0 0.355 0.037 0.512 0.099l-17.845 14.437-17.845-14.437c0.152-0.062 0.327-0.098 0.512-0.099h34.667zM38.667 27.381h-34.667c-0.736 0-1.333-0.557-1.333-1.243v-20.923l17.792 14.395c0.235 0.189 0.537 0.304 0.866 0.304 0.003 0 0.006 0 0.009-0h-0c0.002 0 0.005 0 0.008 0 0.329 0 0.631-0.115 0.869-0.306l-0.003 0.002 17.792-14.395v20.923c0 0.685-0.597 1.243-1.333 1.243z"></path>
<path fill="#000" d="M39.179 2.587l1.677 2.072 3.571-2.891-4.283-1.667-0.965 2.485zM21.333 17.024l-1.677 2.072 1.677 1.357 1.677-1.357-1.677-2.072zM3.488 2.587l-0.965-2.488-4.288 1.667 3.579 2.893 1.68-2.072zM2.667 5.216l1.677-2.075-4.344-3.512v5.587h2.667zM20.459 19.611l-1.677 2.072 0.003 0.003 1.675-2.075zM22.208 19.611v0zM40 5.216h2.667v-5.589l-4.344 3.512 1.677 2.075zM40 26.139v0zM38.667-2.667h-34.667v5.333h34.667v-5.333zM4-2.667c-3.501 0-6.667 2.699-6.667 6.4h5.333c0-0.416 0.427-1.067 1.333-1.067v-5.333zM-2.667 3.733v22.405h5.333v-22.405h-5.333zM-2.667 26.139c0 3.701 3.165 6.4 6.667 6.4v-5.333c-0.907 0-1.333-0.651-1.333-1.067h-5.333zM4 32.539h34.667v-5.333h-34.667v5.333zM38.667 32.539c3.501 0 6.667-2.699 6.667-6.4h-5.333c0 0.416-0.427 1.067-1.333 1.067v5.333zM45.333 26.139v-22.405h-5.333v22.405h5.333zM45.333 3.733c0-3.701-3.165-6.4-6.667-6.4v5.333c0.907 0 1.333 0.651 1.333 1.067h5.333zM38.667 5.155c-0.001 0-0.003 0-0.005 0-0.161 0-0.316-0.030-0.457-0.086l0.009 0.003 1.931-4.971c-0.438-0.176-0.945-0.279-1.477-0.28h-0v5.333zM37.501 0.515l-17.848 14.432 3.355 4.147 17.845-14.437-3.352-4.144zM23.011 14.947l-17.845-14.435-3.352 4.147 17.845 14.437 3.355-4.147zM4.453 5.072c-0.133 0.052-0.287 0.083-0.449 0.083-0.002 0-0.003 0-0.005 0h0v-5.333c-0.528 0-1.027 0.107-1.477 0.277l1.931 4.973zM4 5.155h34.667v-5.333h-34.667v5.333zM38.667 24.715h-34.667v5.333h34.667v-5.333zM4 24.715c0.56 0 1.333 0.467 1.333 1.424h-5.333c0 2.328 1.968 3.909 4 3.909v-5.333zM5.333 26.139v-20.923h-5.333v20.923h5.333zM0.989 7.288l17.792 14.395 3.355-4.144-17.789-14.397-3.357 4.147zM18.784 21.685c0.757 0.611 1.669 0.896 2.549 0.896v-5.333c0.305 0.002 0.584 0.111 0.802 0.29l-0.002-0.002-3.347 4.149zM21.333 22.581c0.88 0 1.792-0.285 2.549-0.896l-3.352-4.149c0.217-0.178 0.497-0.286 0.802-0.288h0v5.333zM23.885 21.683l17.792-14.395-3.355-4.147-17.792 14.397 3.355 4.141zM37.333 5.216v20.923h5.333v-20.923h-5.333zM37.333 26.139c0-0.957 0.773-1.424 1.333-1.424v5.333c2.032 0 4-1.581 4-3.909h-5.333z"></path>
</svg>
